<svg xmlns="http://www.w3.org/2000/svg" xmlns:xlink="http://www.w3.org/1999/xlink" version="1.1" x="0px" y="0px" viewBox="0 0 100 100" enable-background="new 0 0 100 100" xml:space="preserve"><g><path fill-rule="evenodd" clip-rule="evenodd" d="M39.892,59.512c-0.914,0-1.66,0.746-1.66,1.66c0,0.916,0.746,1.662,1.66,1.662   c0.915,0,1.661-0.746,1.661-1.662C41.553,60.258,40.807,59.512,39.892,59.512z"/><circle fill-rule="evenodd" clip-rule="evenodd" cx="64.675" cy="61.173" r="1.052"/><circle fill-rule="evenodd" clip-rule="evenodd" cx="35.384" cy="61.173" r="1.052"/><path fill-rule="evenodd" clip-rule="evenodd" d="M60.167,59.512c-0.915,0-1.661,0.746-1.661,1.66c0,0.916,0.746,1.662,1.661,1.662   c0.914,0,1.66-0.746,1.66-1.662C61.827,60.258,61.081,59.512,60.167,59.512z"/><path fill-rule="evenodd" clip-rule="evenodd" d="M50,11.113c-21.389,0-38.888,17.499-38.888,38.887v0   c0,21.388,17.499,38.886,38.888,38.886S88.888,71.389,88.888,50v0C88.888,28.612,71.389,11.113,50,11.113z M73.99,39.9   c0,0.783-0.634,1.417-1.417,1.417s-1.417-0.635-1.417-1.417v-5.005h-2.905v30.961c0,0.668-0.545,1.213-1.212,1.213h-1.141v2.365   c0,0.467-0.382,0.85-0.849,0.85h-2.122c-0.468,0-0.849-0.383-0.849-0.85v-2.365H37.933v2.365c0,0.467-0.382,0.85-0.849,0.85h-2.122   c-0.467,0-0.849-0.383-0.849-0.85v-2.365h-1.152c-0.667,0-1.213-0.545-1.213-1.213V34.895h-2.904V39.9   c0,0.783-0.634,1.417-1.417,1.417S26.01,40.683,26.01,39.9v-6.423c0-0.783,0.634-1.417,1.417-1.417h4.321v-1.13   c0-0.667,0.546-1.212,1.213-1.212h34.078c0.667,0,1.212,0.545,1.212,1.212v1.13h4.322c0.783,0,1.417,0.635,1.417,1.417V39.9z"/><path fill-rule="evenodd" clip-rule="evenodd" d="M65.479,36.751H34.521c-0.405,0-0.762-0.245-0.953-0.606   c-0.095,0.178-0.148,0.386-0.148,0.606V55.67c0,0.666,0.495,1.213,1.102,1.213h30.959c0.605,0,1.102-0.547,1.102-1.213V36.751   c0-0.22-0.055-0.428-0.149-0.606C66.241,36.506,65.885,36.751,65.479,36.751z"/></g></svg>